<svg width="340" height="340" viewBox="0 0 340 340" fill="none" xmlns="http://www.w3.org/2000/svg">
<rect x="32.5" y="44.5" width="75" height="251" rx="11.5" fill="#FF5252"></rect>
<rect x="32.5" y="44.5" width="75" height="251" rx="11.5" stroke="#FF5252"></rect>
<rect x="132.5" y="44.5" width="75" height="251" rx="11.5" fill="#FF9900"></rect>
<rect x="132.5" y="44.5" width="75" height="251" rx="11.5" stroke="#FF9900"></rect>
<rect x="232" y="44" width="76" height="252" rx="12" fill="#B4E508"></rect>
<path fill-rule="evenodd" clip-rule="evenodd" d="M186.418 126.122L186.402 125.287H186.349C186.349 106.185 194.726 89.0057 208 77.2217V122.11C207.92 123.167 207.879 124.231 207.878 125.298C207.879 126.369 207.92 127.435 208 128.496V218.996L189.985 231.852C190.156 238.47 188.923 245.05 186.365 251.158C181.572 262.627 172.413 271.728 160.9 276.462C151.998 280.123 141.437 280.802 132 278.754V268.003C149.544 273.022 169.298 264.194 176.453 247.008H176.411C180.126 238.104 180.147 228.245 176.464 219.305C172.781 210.365 165.901 203.373 156.904 199.661C148.663 196.245 139.894 196.09 132 198.618V187.706C136.236 186.69 140.935 186.005 144.981 186.19L186.418 126.122ZM132 257.676C135.052 258.852 138.297 259.46 141.572 259.465C145.076 259.47 148.547 258.787 151.786 257.454C155.025 256.12 157.97 254.163 160.45 251.694C162.931 249.225 164.9 246.292 166.245 243.063C168.968 236.539 168.984 229.203 166.29 222.667C163.596 216.131 158.412 210.93 151.877 208.205L132 200.005V257.676ZM232 87.1001V64.3396C237.952 62.4206 244.487 61 250.675 61C274.929 61.0505 297.04 75.7161 308 95.5V155.557C297.031 175.378 274.901 189.606 250.675 189.606L249.219 189.58L232 202.499V164.311C237.849 166.872 244.488 168.123 250.733 168.14C262.105 168.112 273.002 163.587 281.037 155.557C289.072 147.527 293.589 136.646 293.599 125.298C293.586 113.952 289.068 103.074 281.033 95.0456C272.999 87.0175 262.103 82.494 250.733 82.4661C244.488 82.483 237.849 84.2994 232 87.1001ZM108 190.129V264.379C102.644 258.379 98.9393 251.1 97.2202 243.301L32 216.5V159L108 190.129ZM232 151.335C237.439 155.246 244.006 157.395 250.796 157.405C259.341 157.396 267.533 154.002 273.571 147.969C279.608 141.935 282.998 133.756 282.993 125.229C282.993 107.46 268.551 93.0433 250.796 93.0433C244.005 93.0545 237.438 95.2041 232 99.117V151.335Z" fill="#101217"></path>
</svg>
